# xmcd
#
# Track frame offsets: 
#        150
#        21989
#        39376
#        62434
#        81844
#        101457
#        118077
#        137579
#        158379
#        177826
#        194814
#        212959
#        232289
#        252383
#        272191
#        298764
#        318786
#
# Disc length: 4478 seconds
#
# Revision: 0
# Processed by: cddbd v1.5.2PL0 Copyright (c) Steve Scherf et al.
# Submitted via: ExactAudioCopyFreeDBPlugin 1.0
#
DISCID=f9117c11
DTITLE=六哲 - 网络3剑客
DYEAR=1900
DGENRE=
TTITLE0=错错错
TTITLE1=多情的人总被无情伤
TTITLE2=被伤过的心还可以爱谁
TTITLE3=会受伤的人只有一种可能
TTITLE4=我知道我不懂爱
TTITLE5=爱情好无奈
TTITLE6=我好喜欢你
TTITLE7=忘不了你的好
TTITLE8=如果诶有他你还爱我吗
TTITLE9=诱惑Party
TTITLE10=月亮姑娘
TTITLE11=有一些记忆
TTITLE12=他的玫瑰
TTITLE13=千分之一的机会
TTITLE14=如果爱我车里你的负累
TTITLE15=爱怎能没有宽恕
TTITLE16=最爱的你
EXTD=
EXTT0=
EXTT1=
EXTT2=
EXTT3=
EXTT4=
EXTT5=
EXTT6=
EXTT7=
EXTT8=
EXTT9=
EXTT10=
EXTT11=
EXTT12=
EXTT13=
EXTT14=
EXTT15=
EXTT16=
PLAYORDER=
